<?xml version="1.0" encoding="UTF-8" standalone="no"?>
<!DOCTYPE svg PUBLIC "-//W3C//DTD SVG 1.1//EN"
 "http://www.w3.org/Graphics/SVG/1.1/DTD/svg11.dtd">
<!-- Generated by graphviz version 2.38.0 (20140413.2041)
 -->
<!-- Title: %3 Pages: 1 -->
<svg width="278pt" height="692pt"
 viewBox="0.00 0.00 278.00 692.00" xmlns="http://www.w3.org/2000/svg" xmlns:xlink="http://www.w3.org/1999/xlink">
<g id="graph0" class="graph" transform="scale(1 1) rotate(0) translate(4 688)">
<title>%3</title>
<polygon fill="white" stroke="none" points="-4,4 -4,-688 274,-688 274,4 -4,4"/>
<!-- X18 -->
<g id="node1" class="node"><title>X18</title>
<ellipse fill="none" stroke="black" cx="243" cy="-18" rx="27" ry="18"/>
<text text-anchor="middle" x="243" y="-14.3" font-family="Times New Roman,serif" font-size="14.00">X18</text>
</g>
<!-- B19 -->
<g id="node2" class="node"><title>B19</title>
<ellipse fill="none" stroke="black" cx="99" cy="-378" rx="27" ry="18"/>
<text text-anchor="middle" x="99" y="-374.3" font-family="Times New Roman,serif" font-size="14.00">B19</text>
</g>
<!-- B20 -->
<g id="node12" class="node"><title>B20</title>
<ellipse fill="none" stroke="black" cx="99" cy="-306" rx="27" ry="18"/>
<text text-anchor="middle" x="99" y="-302.3" font-family="Times New Roman,serif" font-size="14.00">B20</text>
</g>
<!-- B19&#45;&#45;B20 -->
<g id="edge1" class="edge"><title>B19&#45;&#45;B20</title>
<path fill="none" stroke="black" d="M99,-359.697C99,-348.846 99,-334.917 99,-324.104"/>
</g>
<!-- X12 -->
<g id="node3" class="node"><title>X12</title>
<ellipse fill="none" stroke="black" cx="243" cy="-234" rx="27" ry="18"/>
<text text-anchor="middle" x="243" y="-230.3" font-family="Times New Roman,serif" font-size="14.00">X12</text>
</g>
<!-- B16 -->
<g id="node7" class="node"><title>B16</title>
<ellipse fill="none" stroke="black" cx="243" cy="-162" rx="27" ry="18"/>
<text text-anchor="middle" x="243" y="-158.3" font-family="Times New Roman,serif" font-size="14.00">B16</text>
</g>
<!-- X12&#45;&#45;B16 -->
<g id="edge2" class="edge"><title>X12&#45;&#45;B16</title>
<path fill="none" stroke="black" d="M243,-215.697C243,-204.846 243,-190.917 243,-180.104"/>
</g>
<!-- A13 -->
<g id="node4" class="node"><title>A13</title>
<ellipse fill="none" stroke="black" cx="99" cy="-594" rx="27" ry="18"/>
<text text-anchor="middle" x="99" y="-590.3" font-family="Times New Roman,serif" font-size="14.00">A13</text>
</g>
<!-- X14 -->
<g id="node9" class="node"><title>X14</title>
<ellipse fill="none" stroke="black" cx="27" cy="-522" rx="27" ry="18"/>
<text text-anchor="middle" x="27" y="-518.3" font-family="Times New Roman,serif" font-size="14.00">X14</text>
</g>
<!-- A13&#45;&#45;X14 -->
<g id="edge3" class="edge"><title>A13&#45;&#45;X14</title>
<path fill="none" stroke="black" d="M84.4297,-578.834C72.0202,-566.77 54.2694,-549.512 41.7957,-537.385"/>
</g>
<!-- X15 -->
<g id="node10" class="node"><title>X15</title>
<ellipse fill="none" stroke="black" cx="99" cy="-522" rx="27" ry="18"/>
<text text-anchor="middle" x="99" y="-518.3" font-family="Times New Roman,serif" font-size="14.00">X15</text>
</g>
<!-- A13&#45;&#45;X15 -->
<g id="edge4" class="edge"><title>A13&#45;&#45;X15</title>
<path fill="none" stroke="black" d="M99,-575.697C99,-564.846 99,-550.917 99,-540.104"/>
</g>
<!-- B10 -->
<g id="node5" class="node"><title>B10</title>
<ellipse fill="none" stroke="black" cx="243" cy="-378" rx="27" ry="18"/>
<text text-anchor="middle" x="243" y="-374.3" font-family="Times New Roman,serif" font-size="14.00">B10</text>
</g>
<!-- B11 -->
<g id="node6" class="node"><title>B11</title>
<ellipse fill="none" stroke="black" cx="243" cy="-306" rx="27" ry="18"/>
<text text-anchor="middle" x="243" y="-302.3" font-family="Times New Roman,serif" font-size="14.00">B11</text>
</g>
<!-- B10&#45;&#45;B11 -->
<g id="edge5" class="edge"><title>B10&#45;&#45;B11</title>
<path fill="none" stroke="black" d="M243,-359.697C243,-348.846 243,-334.917 243,-324.104"/>
</g>
<!-- B11&#45;&#45;X12 -->
<g id="edge6" class="edge"><title>B11&#45;&#45;X12</title>
<path fill="none" stroke="black" d="M243,-287.697C243,-276.846 243,-262.917 243,-252.104"/>
</g>
<!-- B17 -->
<g id="node8" class="node"><title>B17</title>
<ellipse fill="none" stroke="black" cx="243" cy="-90" rx="27" ry="18"/>
<text text-anchor="middle" x="243" y="-86.3" font-family="Times New Roman,serif" font-size="14.00">B17</text>
</g>
<!-- B16&#45;&#45;B17 -->
<g id="edge7" class="edge"><title>B16&#45;&#45;B17</title>
<path fill="none" stroke="black" d="M243,-143.697C243,-132.846 243,-118.917 243,-108.104"/>
</g>
<!-- B17&#45;&#45;X18 -->
<g id="edge8" class="edge"><title>B17&#45;&#45;X18</title>
<path fill="none" stroke="black" d="M243,-71.6966C243,-60.8463 243,-46.9167 243,-36.1043"/>
</g>
<!-- X21 -->
<g id="node11" class="node"><title>X21</title>
<ellipse fill="none" stroke="black" cx="99" cy="-234" rx="27" ry="18"/>
<text text-anchor="middle" x="99" y="-230.3" font-family="Times New Roman,serif" font-size="14.00">X21</text>
</g>
<!-- B20&#45;&#45;X21 -->
<g id="edge9" class="edge"><title>B20&#45;&#45;X21</title>
<path fill="none" stroke="black" d="M99,-287.697C99,-276.846 99,-262.917 99,-252.104"/>
</g>
<!-- X0 -->
<g id="node13" class="node"><title>X0</title>
<ellipse fill="none" stroke="black" cx="171" cy="-666" rx="27" ry="18"/>
<text text-anchor="middle" x="171" y="-662.3" font-family="Times New Roman,serif" font-size="14.00">X0</text>
</g>
<!-- X0&#45;&#45;A13 -->
<g id="edge12" class="edge"><title>X0&#45;&#45;A13</title>
<path fill="none" stroke="black" d="M156.43,-650.834C144.02,-638.77 126.269,-621.512 113.796,-609.385"/>
</g>
<!-- B1 -->
<g id="node14" class="node"><title>B1</title>
<ellipse fill="none" stroke="black" cx="171" cy="-594" rx="27" ry="18"/>
<text text-anchor="middle" x="171" y="-590.3" font-family="Times New Roman,serif" font-size="14.00">B1</text>
</g>
<!-- X0&#45;&#45;B1 -->
<g id="edge10" class="edge"><title>X0&#45;&#45;B1</title>
<path fill="none" stroke="black" d="M171,-647.697C171,-636.846 171,-622.917 171,-612.104"/>
</g>
<!-- B7 -->
<g id="node20" class="node"><title>B7</title>
<ellipse fill="none" stroke="black" cx="243" cy="-594" rx="27" ry="18"/>
<text text-anchor="middle" x="243" y="-590.3" font-family="Times New Roman,serif" font-size="14.00">B7</text>
</g>
<!-- X0&#45;&#45;B7 -->
<g id="edge11" class="edge"><title>X0&#45;&#45;B7</title>
<path fill="none" stroke="black" d="M185.57,-650.834C197.98,-638.77 215.731,-621.512 228.204,-609.385"/>
</g>
<!-- B2 -->
<g id="node15" class="node"><title>B2</title>
<ellipse fill="none" stroke="black" cx="171" cy="-522" rx="27" ry="18"/>
<text text-anchor="middle" x="171" y="-518.3" font-family="Times New Roman,serif" font-size="14.00">B2</text>
</g>
<!-- B1&#45;&#45;B2 -->
<g id="edge13" class="edge"><title>B1&#45;&#45;B2</title>
<path fill="none" stroke="black" d="M171,-575.697C171,-564.846 171,-550.917 171,-540.104"/>
</g>
<!-- X3 -->
<g id="node16" class="node"><title>X3</title>
<ellipse fill="none" stroke="black" cx="171" cy="-450" rx="27" ry="18"/>
<text text-anchor="middle" x="171" y="-446.3" font-family="Times New Roman,serif" font-size="14.00">X3</text>
</g>
<!-- B2&#45;&#45;X3 -->
<g id="edge14" class="edge"><title>B2&#45;&#45;X3</title>
<path fill="none" stroke="black" d="M171,-503.697C171,-492.846 171,-478.917 171,-468.104"/>
</g>
<!-- X3&#45;&#45;B19 -->
<g id="edge16" class="edge"><title>X3&#45;&#45;B19</title>
<path fill="none" stroke="black" d="M156.43,-434.834C144.02,-422.77 126.269,-405.512 113.796,-393.385"/>
</g>
<!-- B4 -->
<g id="node17" class="node"><title>B4</title>
<ellipse fill="none" stroke="black" cx="171" cy="-378" rx="27" ry="18"/>
<text text-anchor="middle" x="171" y="-374.3" font-family="Times New Roman,serif" font-size="14.00">B4</text>
</g>
<!-- X3&#45;&#45;B4 -->
<g id="edge15" class="edge"><title>X3&#45;&#45;B4</title>
<path fill="none" stroke="black" d="M171,-431.697C171,-420.846 171,-406.917 171,-396.104"/>
</g>
<!-- B5 -->
<g id="node18" class="node"><title>B5</title>
<ellipse fill="none" stroke="black" cx="171" cy="-306" rx="27" ry="18"/>
<text text-anchor="middle" x="171" y="-302.3" font-family="Times New Roman,serif" font-size="14.00">B5</text>
</g>
<!-- B4&#45;&#45;B5 -->
<g id="edge17" class="edge"><title>B4&#45;&#45;B5</title>
<path fill="none" stroke="black" d="M171,-359.697C171,-348.846 171,-334.917 171,-324.104"/>
</g>
<!-- X6 -->
<g id="node19" class="node"><title>X6</title>
<ellipse fill="none" stroke="black" cx="171" cy="-234" rx="27" ry="18"/>
<text text-anchor="middle" x="171" y="-230.3" font-family="Times New Roman,serif" font-size="14.00">X6</text>
</g>
<!-- B5&#45;&#45;X6 -->
<g id="edge18" class="edge"><title>B5&#45;&#45;X6</title>
<path fill="none" stroke="black" d="M171,-287.697C171,-276.846 171,-262.917 171,-252.104"/>
</g>
<!-- B8 -->
<g id="node21" class="node"><title>B8</title>
<ellipse fill="none" stroke="black" cx="243" cy="-522" rx="27" ry="18"/>
<text text-anchor="middle" x="243" y="-518.3" font-family="Times New Roman,serif" font-size="14.00">B8</text>
</g>
<!-- B7&#45;&#45;B8 -->
<g id="edge19" class="edge"><title>B7&#45;&#45;B8</title>
<path fill="none" stroke="black" d="M243,-575.697C243,-564.846 243,-550.917 243,-540.104"/>
</g>
<!-- X9 -->
<g id="node22" class="node"><title>X9</title>
<ellipse fill="none" stroke="black" cx="243" cy="-450" rx="27" ry="18"/>
<text text-anchor="middle" x="243" y="-446.3" font-family="Times New Roman,serif" font-size="14.00">X9</text>
</g>
<!-- B8&#45;&#45;X9 -->
<g id="edge20" class="edge"><title>B8&#45;&#45;X9</title>
<path fill="none" stroke="black" d="M243,-503.697C243,-492.846 243,-478.917 243,-468.104"/>
</g>
<!-- X9&#45;&#45;B10 -->
<g id="edge21" class="edge"><title>X9&#45;&#45;B10</title>
<path fill="none" stroke="black" d="M243,-431.697C243,-420.846 243,-406.917 243,-396.104"/>
</g>
</g>
</svg>
